<svg xmlns="http://www.w3.org/2000/svg" width="80" height="17" viewBox="0 0 80 17">
  <path id="Path_20" data-name="Path 20" d="M-5552.653-44.746a4.741,4.741,0,0,1-1.758-1.375.763.763,0,0,1-.188-.472.734.734,0,0,1,.355-.607.874.874,0,0,1,.474-.15.836.836,0,0,1,.693.354,2.972,2.972,0,0,0,1.149.9,3.794,3.794,0,0,0,1.573.312,2.919,2.919,0,0,0,1.506-.4,2.861,2.861,0,0,0,1.083-1.164,3.872,3.872,0,0,0,.405-1.83V-50a3.912,3.912,0,0,1-1.387,1.45,3.677,3.677,0,0,1-1.945.523,4.239,4.239,0,0,1-2.24-.6,4.1,4.1,0,0,1-1.54-1.661,5.178,5.178,0,0,1-.549-2.411,4.9,4.9,0,0,1,.592-2.428,4.238,4.238,0,0,1,1.657-1.661,4.852,4.852,0,0,1,2.418-.6,4.77,4.77,0,0,1,2.393.6,4.421,4.421,0,0,1,.612.417l-.011-1h1.654V-52.9c0,.066,0,.132,0,.2v3.643a5.031,5.031,0,0,1-.592,2.428,4.388,4.388,0,0,1-1.666,1.728,4.689,4.689,0,0,1-2.429.633,5.377,5.377,0,0,1-2.264-.481Zm.753-10.717a2.852,2.852,0,0,0-1.074,1.13,3.407,3.407,0,0,0-.389,1.636,3.361,3.361,0,0,0,.389,1.627,2.864,2.864,0,0,0,1.074,1.122,2.98,2.98,0,0,0,1.547.4,2.982,2.982,0,0,0,1.547-.4,2.8,2.8,0,0,0,1.066-1.121,3.427,3.427,0,0,0,.38-1.627,3.481,3.481,0,0,0-.38-1.636,2.793,2.793,0,0,0-1.066-1.13,2.983,2.983,0,0,0-1.547-.4,2.981,2.981,0,0,0-1.546.4Zm42.433,6.949a3.566,3.566,0,0,1-1.454-1.475,4.853,4.853,0,0,1-.524-2.336v-5.009h1.726v5.009a2.718,2.718,0,0,0,.735,2.066,2.716,2.716,0,0,0,1.953.7,2.892,2.892,0,0,0,1.294-.287,2.289,2.289,0,0,0,.913-.776,1.919,1.919,0,0,0,.33-1.1v-5.616h1.725v8.381a.849.849,0,0,1-.237.616.83.83,0,0,1-.625.244.836.836,0,0,1-.617-.244.833.833,0,0,1-.246-.616v-.186a3.765,3.765,0,0,1-1.285.834,4.274,4.274,0,0,1-1.59.3,4.317,4.317,0,0,1-2.1-.506Zm11.49-.127a4.446,4.446,0,0,1-1.682-1.686,4.742,4.742,0,0,1-.609-2.386,5.021,5.021,0,0,1,.565-2.386,4.262,4.262,0,0,1,1.555-1.678,4.135,4.135,0,0,1,2.207-.607,4.174,4.174,0,0,1,1.826.4,4.141,4.141,0,0,1,1.438,1.13v-5.415h1.725v12.311a.861.861,0,0,1-.862.86.861.861,0,0,1-.863-.86l0-.079a4.708,4.708,0,0,1-.571.391,4.6,4.6,0,0,1-2.359.616,4.691,4.691,0,0,1-2.375-.616Zm.846-6.813a2.984,2.984,0,0,0-1.083,1.13,3.267,3.267,0,0,0-.4,1.611,3.315,3.315,0,0,0,.4,1.619,2.966,2.966,0,0,0,1.083,1.138,2.9,2.9,0,0,0,1.53.413,2.905,2.905,0,0,0,1.53-.413A2.9,2.9,0,0,0-5493-51.094a3.364,3.364,0,0,0,.39-1.619,3.314,3.314,0,0,0-.39-1.611,2.913,2.913,0,0,0-1.074-1.13,2.9,2.9,0,0,0-1.53-.413,2.905,2.905,0,0,0-1.529.412Zm-23.852,6.83a4.233,4.233,0,0,1-1.657-1.661,4.873,4.873,0,0,1-.592-2.411,4.911,4.911,0,0,1,.591-2.428,4.234,4.234,0,0,1,1.657-1.661,4.852,4.852,0,0,1,2.418-.6,4.771,4.771,0,0,1,2.393.6,4.314,4.314,0,0,1,1.657,1.661,4.85,4.85,0,0,1,.6,2.428,4.868,4.868,0,0,1-.591,2.411,4.251,4.251,0,0,1-1.648,1.661,4.8,4.8,0,0,1-2.411.6,4.848,4.848,0,0,1-2.417-.6Zm.871-6.838a2.853,2.853,0,0,0-1.074,1.13,3.407,3.407,0,0,0-.389,1.636,3.361,3.361,0,0,0,.389,1.627,2.863,2.863,0,0,0,1.074,1.121,2.981,2.981,0,0,0,1.547.4,2.983,2.983,0,0,0,1.547-.4,2.8,2.8,0,0,0,1.065-1.121,3.416,3.416,0,0,0,.381-1.627,3.469,3.469,0,0,0-.381-1.636,2.785,2.785,0,0,0-1.065-1.13,2.984,2.984,0,0,0-1.547-.4,2.981,2.981,0,0,0-1.544.4Zm-16.073,6.83a4.338,4.338,0,0,1-1.666-1.678,4.8,4.8,0,0,1-.6-2.386,4.987,4.987,0,0,1,.583-2.42,4.2,4.2,0,0,1,1.632-1.67,4.688,4.688,0,0,1,2.367-.6,4.207,4.207,0,0,1,3.314,1.518.628.628,0,0,1,.169.439.739.739,0,0,1-.372.624.664.664,0,0,1-.389.118.852.852,0,0,1-.659-.3,2.688,2.688,0,0,0-.921-.666,2.9,2.9,0,0,0-1.141-.211,2.759,2.759,0,0,0-2.113.869,3.236,3.236,0,0,0-.812,2.3,3.427,3.427,0,0,0,.381,1.627,2.8,2.8,0,0,0,1.065,1.121,3.017,3.017,0,0,0,1.564.4,2.815,2.815,0,0,0,1.86-.59,1.062,1.062,0,0,1,.626-.236.72.72,0,0,1,.439.15.785.785,0,0,1,.321.607.625.625,0,0,1-.2.455,4.3,4.3,0,0,1-3.044,1.13,4.763,4.763,0,0,1-2.4-.606Zm-28.088.008a4.242,4.242,0,0,1-1.657-1.661,4.873,4.873,0,0,1-.591-2.411,4.906,4.906,0,0,1,.592-2.428,4.239,4.239,0,0,1,1.657-1.661,4.853,4.853,0,0,1,2.418-.6,4.768,4.768,0,0,1,2.392.6,4.31,4.31,0,0,1,1.657,1.661,4.845,4.845,0,0,1,.6,2.428,4.869,4.869,0,0,1-.592,2.411,4.251,4.251,0,0,1-1.648,1.661,4.8,4.8,0,0,1-2.41.6,4.848,4.848,0,0,1-2.416-.6Zm.871-6.838a2.849,2.849,0,0,0-1.074,1.13,3.407,3.407,0,0,0-.389,1.636,3.36,3.36,0,0,0,.389,1.627,2.863,2.863,0,0,0,1.074,1.121,2.981,2.981,0,0,0,1.547.4,2.982,2.982,0,0,0,1.547-.4,2.8,2.8,0,0,0,1.065-1.121,3.41,3.41,0,0,0,.38-1.627,3.458,3.458,0,0,0-.38-1.636,2.787,2.787,0,0,0-1.065-1.13,2.983,2.983,0,0,0-1.547-.4,2.982,2.982,0,0,0-1.546.4Zm37.769,7.369a2.279,2.279,0,0,1-1.311-.4,2.579,2.579,0,0,1-.9-1.113,3.9,3.9,0,0,1-.321-1.61V-61.265h1.691v10.052a2.017,2.017,0,0,0,.237,1.029.7.7,0,0,0,.609.4h.422a.7.7,0,0,1,.55.236.875.875,0,0,1,.211.607.721.721,0,0,1-.322.607,1.363,1.363,0,0,1-.828.236Zm-17-.244a.835.835,0,0,1-.245-.616v-8.365h1.725v8.365a.849.849,0,0,1-.237.616.83.83,0,0,1-.625.245.84.84,0,0,1-.618-.244Zm-25.779.244a2.278,2.278,0,0,1-1.311-.4,2.58,2.58,0,0,1-.9-1.113,3.879,3.879,0,0,1-.322-1.61V-61.265h1.691v10.052a2.013,2.013,0,0,0,.237,1.029.7.7,0,0,0,.609.4h.422a.7.7,0,0,1,.55.236.873.873,0,0,1,.211.607.722.722,0,0,1-.321.607,1.362,1.362,0,0,1-.829.236Zm25.61-11.054a1.07,1.07,0,0,1-.329-.784,1.07,1.07,0,0,1,.329-.784,1.076,1.076,0,0,1,.787-.329,1.072,1.072,0,0,1,.785.329,1.065,1.065,0,0,1,.33.784,1.065,1.065,0,0,1-.33.784,1.073,1.073,0,0,1-.785.329,1.074,1.074,0,0,1-.787-.33Z" transform="translate(5570.952 61.265)" fill="#fff"/>
</svg>
