<svg xmlns="http://www.w3.org/2000/svg" width="156" height="30" viewBox="0 0 156 30">
  <path id="Path_299" data-name="Path 299" d="M9600.414,929h-6.082l1.648-9.33h2.381a8.317,8.317,0,0,0,2.329-3.84l2.606-10.611h16.673l-2.552,14.451h2.749L9618.519,929h-6.085l.41-4.391h-11.286L9600.414,929Zm7.03-18.842-.645,5.3a9.186,9.186,0,0,1-2.207,4.207H9611l1.682-9.512h-5.242ZM9557.32,929h-6.414l4.2-23.781h5.679l.046,1.829a16.065,16.065,0,0,1,3.827-1.664,12.284,12.284,0,0,1,3.157-.531h1.648a4.581,4.581,0,0,1,3.729,1.5,4.729,4.729,0,0,1,.8,3.988l-1.486,8.415a7.036,7.036,0,0,1-2.318,4.3,6.857,6.857,0,0,1-4.579,1.555h-7.512l-.774,4.39Zm7.723-18.842a17.017,17.017,0,0,0-4.525.732l-1.553,8.78h5.5a1.588,1.588,0,0,0,1.722-1.462l1.2-6.769a1.084,1.084,0,0,0-.205-.914c-.2-.243-.49-.367-1.512-.367Zm62.616,14.816h-1.285a4.575,4.575,0,0,1-3.729-1.5,4.721,4.721,0,0,1-.8-3.986l.291-1.648a6.564,6.564,0,0,1,2.207-3.986,6.4,6.4,0,0,1,4.258-1.5h7.514l.261-1.464a1.087,1.087,0,0,0-.206-.914,1.05,1.05,0,0,0-.851-.367c-1.584,0-3.366.074-5.3.219-1.855.141-3.434.252-4.7.329l.808-4.573a116.609,116.609,0,0,1,12.224-.732,4.573,4.573,0,0,1,3.728,1.5,4.723,4.723,0,0,1,.8,3.988l-2.518,14.268h-5.682l-.043-1.829a16.069,16.069,0,0,1-3.832,1.666A12.342,12.342,0,0,1,9627.659,924.974Zm2.338-8.048a1.5,1.5,0,0,0-.983.365,1.527,1.527,0,0,0-.528.916l-.062.365a1.081,1.081,0,0,0,.2.915,1.051,1.051,0,0,0,.852.365h.917a17.014,17.014,0,0,0,4.527-.732l.387-2.195Zm-49.433,8.048h-1.28a4.57,4.57,0,0,1-3.729-1.5,4.711,4.711,0,0,1-.8-3.986l.29-1.648a6.562,6.562,0,0,1,2.208-3.986,6.39,6.39,0,0,1,4.26-1.5h7.513l.256-1.464a1.081,1.081,0,0,0-.2-.914,1.04,1.04,0,0,0-.854-.367c-1.58,0-3.362.074-5.3.219-1.861.141-3.44.252-4.694.329l.807-4.573a116.6,116.6,0,0,1,12.225-.732,4.575,4.575,0,0,1,3.728,1.5,4.72,4.72,0,0,1,.8,3.988l-2.521,14.268H9587.6l-.045-1.829a16.057,16.057,0,0,1-3.829,1.666A12.374,12.374,0,0,1,9580.564,924.974Zm2.342-8.048a1.485,1.485,0,0,0-.981.365,1.509,1.509,0,0,0-.528.916l-.065.365a1.083,1.083,0,0,0,.2.915,1.043,1.043,0,0,0,.854.365h.917a17.008,17.008,0,0,0,4.527-.732l.387-2.195Zm-64.454,8.048h-1.283a4.573,4.573,0,0,1-3.73-1.5,4.721,4.721,0,0,1-.8-3.986l.292-1.648a6.572,6.572,0,0,1,2.206-3.986,6.4,6.4,0,0,1,4.26-1.5h7.513l.26-1.464a1.077,1.077,0,0,0-.206-.914,1.048,1.048,0,0,0-.851-.367c-1.583,0-3.366.074-5.3.219-1.853.141-3.433.252-4.7.329l.808-4.573a116.652,116.652,0,0,1,12.223-.732,4.576,4.576,0,0,1,3.729,1.5,4.719,4.719,0,0,1,.8,3.988l-2.519,14.268h-5.683l-.041-1.829a16.124,16.124,0,0,1-3.833,1.666A12.335,12.335,0,0,1,9518.452,924.974Zm2.337-8.048a1.494,1.494,0,0,0-.981.365,1.518,1.518,0,0,0-.528.916l-.063.365a1.084,1.084,0,0,0,.2.915,1.048,1.048,0,0,0,.852.365h.918a17.007,17.007,0,0,0,4.525-.732l.388-2.195Zm-11.436,7.683h-6.6l1.843-10.425h-9.16l-1.846,10.425H9487L9491.523,899h6.6l-1.777,10.06h9.161l1.778-10.06h6.6l-4.526,25.609Zm30.783,0h-6.412l3.424-19.39h15.761l-.872,4.939h-9.347l-2.554,14.45Z" transform="translate(-9486.999 -899)" fill="#fff"/>
</svg>
