<svg xmlns="http://www.w3.org/2000/svg" width="85.999" height="86" viewBox="0 0 85.999 86">
  <g id="noun-successful-5155458" transform="translate(-78.488 -8.484)">
    <path id="Path_373" data-name="Path 373" d="M342.859,15.042A1.347,1.347,0,0,0,344.2,13.7V9.828a1.344,1.344,0,1,0-2.687,0V13.7A1.339,1.339,0,0,0,342.859,15.042Z" transform="translate(-221.372)" fill="#577ee9"/>
    <path id="Path_374" data-name="Path 374" d="M342.859,510.11a1.347,1.347,0,0,0-1.344,1.344v3.87a1.344,1.344,0,1,0,2.687,0v-3.87a1.339,1.339,0,0,0-1.344-1.344Z" transform="translate(-221.372 -422.183)" fill="#577ee9"/>
    <path id="Path_375" data-name="Path 375" d="M158.713,90.614a1.32,1.32,0,0,0,.954.39,1.375,1.375,0,0,0,.954-.39,1.339,1.339,0,0,0,0-1.895l-2.741-2.741a1.34,1.34,0,0,0-1.895,1.895Z" transform="translate(-64.893 -64.89)" fill="#577ee9"/>
    <path id="Path_376" data-name="Path 376" d="M512.541,440.572a1.34,1.34,0,0,0-1.895,1.895l2.741,2.741a1.32,1.32,0,0,0,.954.39,1.375,1.375,0,0,0,.954-.39,1.339,1.339,0,0,0,0-1.895Z" transform="translate(-363.387 -363.327)" fill="#577ee9"/>
    <path id="Path_377" data-name="Path 377" d="M83.7,271.52h-3.87a1.344,1.344,0,0,0,0,2.687H83.7a1.344,1.344,0,0,0,0-2.687Z" transform="translate(0 -221.379)" fill="#577ee9"/>
    <path id="Path_378" data-name="Path 378" d="M585.322,271.52h-3.87a1.344,1.344,0,0,0,0,2.687h3.87a1.344,1.344,0,0,0,0-2.687Z" transform="translate(-422.178 -221.379)" fill="#577ee9"/>
    <path id="Path_379" data-name="Path 379" d="M158.644,440.569,155.9,443.31a1.339,1.339,0,0,0,0,1.895,1.32,1.32,0,0,0,.954.39,1.375,1.375,0,0,0,.954-.39l2.741-2.741a1.339,1.339,0,0,0,0-1.895,1.353,1.353,0,0,0-1.908,0Z" transform="translate(-64.824 -363.324)" fill="#577ee9"/>
    <path id="Path_380" data-name="Path 380" d="M511.591,91a1.375,1.375,0,0,0,.954-.39l2.741-2.741a1.34,1.34,0,0,0-1.895-1.895l-2.741,2.741A1.337,1.337,0,0,0,511.591,91Z" transform="translate(-363.39 -64.889)" fill="#577ee9"/>
    <path id="Path_381" data-name="Path 381" d="M246.74,155.27a19.43,19.43,0,1,0,19.43,19.43A19.458,19.458,0,0,0,246.74,155.27Zm0,36.173A16.743,16.743,0,1,1,263.483,174.7,16.763,16.763,0,0,1,246.74,191.443Z" transform="translate(-125.253 -123.539)" fill="#e3e8ef"/>
    <path id="Path_382" data-name="Path 382" d="M204.784,104.079l2.459-6.893a1.382,1.382,0,0,0-.054-1.035,1.312,1.312,0,0,0-.779-.685l-6.92-2.379L198.71,85.8a1.356,1.356,0,0,0-.5-.914,1.339,1.339,0,0,0-.994-.282l-7.27.86-3.857-6.222a1.341,1.341,0,0,0-.846-.6,1.369,1.369,0,0,0-1.021.174l-6.181,3.938-6.181-3.937a1.356,1.356,0,0,0-1.021-.174,1.342,1.342,0,0,0-.846.6l-3.857,6.222-7.27-.86a1.338,1.338,0,0,0-.994.282,1.356,1.356,0,0,0-.5.914l-.779,7.283-6.934,2.379a1.4,1.4,0,0,0-.779.685,1.321,1.321,0,0,0-.054,1.035l2.459,6.893-5.2,5.146a1.33,1.33,0,0,0,0,1.908l5.2,5.146-2.459,6.893a1.382,1.382,0,0,0,.054,1.035,1.312,1.312,0,0,0,.779.685l6.92,2.379.779,7.283a1.356,1.356,0,0,0,.5.914,1.339,1.339,0,0,0,.994.282l7.27-.86,3.857,6.222a1.341,1.341,0,0,0,.846.6,1.369,1.369,0,0,0,1.021-.174l6.181-3.937,6.181,3.937a1.389,1.389,0,0,0,.726.215,2.272,2.272,0,0,0,.3-.027,1.342,1.342,0,0,0,.846-.6l3.857-6.222,7.27.86a1.323,1.323,0,0,0,.994-.282,1.356,1.356,0,0,0,.5-.914l.779-7.283,6.92-2.379a1.4,1.4,0,0,0,.779-.685,1.321,1.321,0,0,0,.054-1.035l-2.445-6.908,5.2-5.146a1.33,1.33,0,0,0,0-1.908Zm-2.5,10.9a1.337,1.337,0,0,0-.322,1.411l2.285,6.423-6.45,2.217a1.336,1.336,0,0,0-.9,1.129l-.726,6.786-6.772-.793a1.355,1.355,0,0,0-1.3.632l-3.6,5.792-5.751-3.669a1.389,1.389,0,0,0-.726-.215,1.305,1.305,0,0,0-.726.215l-5.751,3.669-3.6-5.792a1.356,1.356,0,0,0-1.3-.632l-6.772.793-.726-6.786a1.338,1.338,0,0,0-.9-1.129l-6.45-2.217,2.285-6.423a1.344,1.344,0,0,0-.322-1.411l-4.851-4.8,4.851-4.8a1.337,1.337,0,0,0,.322-1.411l-2.285-6.423,6.45-2.217a1.336,1.336,0,0,0,.9-1.129l.726-6.786,6.772.793a1.381,1.381,0,0,0,1.3-.632l3.6-5.792,5.751,3.668a1.327,1.327,0,0,0,1.438,0l5.751-3.668,3.6,5.792a1.344,1.344,0,0,0,1.3.632l6.772-.793.726,6.786a1.338,1.338,0,0,0,.9,1.129l6.45,2.2-2.285,6.423a1.344,1.344,0,0,0,.322,1.411l4.851,4.8Z" transform="translate(-56.556 -59.018)" fill="#e3e8ef"/>
    <path id="Path_383" data-name="Path 383" d="M315.361,239.266l-9.379,9.379-2.929-2.929a1.34,1.34,0,0,0-1.895,1.895l3.87,3.87a1.33,1.33,0,0,0,.954.39,1.387,1.387,0,0,0,.954-.39l10.334-10.334a1.339,1.339,0,0,0,0-1.895,1.355,1.355,0,0,0-1.909.014Z" transform="translate(-187.075 -193.896)" fill="#2655d8"/>
  </g>
</svg>
